HIERARCHY
ROOT Hips
{
 OFFSET 0.000000 0.000000 0.000000
 CHANNELS 6 Xposition Yposition Zposition Yrotation Xrotation Zrotation
 JOINT Chest
 {
  OFFSET 0.000000 10.364816 -1.151647
  CHANNELS 3 Yrotation Xrotation Zrotation
  JOINT Chest2
  {
   OFFSET 0.000000 11.517722 0.000000
   CHANNELS 3 Yrotation Xrotation Zrotation
   JOINT Chest3
   {
    OFFSET 0.000000 10.515803 -0.000997
    CHANNELS 3 Yrotation Xrotation Zrotation
    JOINT Chest4
    {
     OFFSET 0.000000 10.504064 -0.000998
     CHANNELS 3 Yrotation Xrotation Zrotation
     JOINT Neck
     {
      OFFSET 0.000000 14.700995 0.000000
      CHANNELS 3 Yrotation Xrotation Zrotation
      JOINT Head
      {
       OFFSET 0.000000 9.779656 0.002144
       CHANNELS 3 Yrotation Xrotation Zrotation
       End Site
       {
        OFFSET 0.000000 18.151804 0.000288
       }
      }
     }
     JOINT RightCollar
     {
      OFFSET -3.200323 8.241254 0.000000
      CHANNELS 3 Yrotation Xrotation Zrotation
      JOINT RightShoulder
      {
       OFFSET -14.963748 0.000000 0.000000
       CHANNELS 3 Yrotation Xrotation Zrotation
       JOINT RightElbow
       {
        OFFSET -31.975847 0.000000 0.000000
        CHANNELS 3 Yrotation Xrotation Zrotation
        JOINT RightWrist
        {
         OFFSET -26.149034 0.000000 0.000000
         CHANNELS 3 Yrotation Xrotation Zrotation
         End Site
         {
          OFFSET -19.551817 0.000000 0.000000
         }
        }
       }
      }
     }
     JOINT LeftCollar
     {
      OFFSET 3.200323 8.241254 0.000000
      CHANNELS 3 Yrotation Xrotation Zrotation
      JOINT LeftShoulder
      {
       OFFSET 14.963748 0.000000 0.000000
       CHANNELS 3 Yrotation Xrotation Zrotation
       JOINT LeftElbow
       {
        OFFSET 31.975847 0.000000 0.000000
        CHANNELS 3 Yrotation Xrotation Zrotation
        JOINT LeftWrist
        {
         OFFSET 26.149034 0.000000 0.000000
         CHANNELS 3 Yrotation Xrotation Zrotation
         End Site
         {
          OFFSET 19.551817 0.000000 0.000000
         }
        }
       }
      }
     }
    }
   }
  }
 }
 JOINT RightHip
 {
  OFFSET -8.525852 0.003604 -0.000400
  CHANNELS 3 Yrotation Xrotation Zrotation
  JOINT RightKnee
  {
   OFFSET 0.000000 -44.087434 -0.000236
   CHANNELS 3 Yrotation Xrotation Zrotation
   JOINT RightAnkle
   {
    OFFSET 0.000000 -43.085328 -0.000397
    CHANNELS 3 Yrotation Xrotation Zrotation
    JOINT RightToe
    {
     OFFSET 0.000000 -7.938348 18.057956
     CHANNELS 3 Yrotation Xrotation Zrotation
     End Site
     {
      OFFSET 0.000000 -1.698114 7.444337
     }
    }
   }
  }
 }
 JOINT LeftHip
 {
  OFFSET 8.525852 0.001277 -0.000142
  CHANNELS 3 Yrotation Xrotation Zrotation
  JOINT LeftKnee
  {
   OFFSET 0.000000 -44.087434 -0.000236
   CHANNELS 3 Yrotation Xrotation Zrotation
   JOINT LeftAnkle
   {
    OFFSET 0.000000 -43.085328 -0.000397
    CHANNELS 3 Yrotation Xrotation Zrotation
    JOINT LeftToe
    {
     OFFSET 0.000000 -7.938348 18.057956
     CHANNELS 3 Yrotation Xrotation Zrotation
     End Site
     {
      OFFSET 0.000000 -1.698114 7.444337
     }
    }
   }
  }
 }
}
MOTION
Frames: 10
Frame Time: 0.004167
-216.425095 96.833947 396.991278 9.540235 2.917248 1.730232 -0.304077 1.477810 -0.944500 -0.089441 -5.168764 -0.420456 -0.089039 0.651661 -0.429535 -0.099243 6.325401 -0.324020 0.278419 16.122657 1.149449 0.104537 -6.083473 2.037618 1.417709 -3.457425 7.886438 6.939715 -7.162189 75.421867 7.338832 22.981134 7.187834 -2.851166 7.564834 -2.954570 -0.225044 -2.896761 -7.716430 -12.950213 -7.990837 -74.895599 -10.970425 28.156110 -5.545501 6.572791 0.850273 2.837091 -2.813492 -5.707479 -3.206571 0.353841 10.070716 0.318930 2.399856 -8.177932 1.756886 0.000000 -0.000000 0.000000 2.398451 -0.320004 -1.538119 -0.003127 1.985416 -0.339532 -9.635440 -8.542435 2.687150 0.000000 0.000000 -0.000000
-216.434841 96.831581 397.000620 9.535167 2.917701 1.704870 -0.299319 1.473822 -0.928331 -0.088117 -5.170562 -0.413261 -0.087720 0.649863 -0.422206 -0.097701 6.324053 -0.318490 0.277985 16.133744 1.151415 0.103179 -6.062858 2.041338 1.416138 -3.445060 7.874755 6.945429 -7.163430 75.432784 7.339468 22.984065 7.188816 -2.849679 7.566926 -2.954026 -0.223902 -2.889222 -7.720297 -12.946860 -7.995727 -74.897172 -10.971552 28.153315 -5.546265 6.571113 0.850030 2.836059 -2.803314 -5.709104 -3.172532 0.322231 10.086338 0.307799 2.415967 -8.186243 1.761485 -0.000000 0.000000 0.000000 2.413117 -0.310696 -1.487318 -0.001371 1.975481 -0.375341 -9.647351 -8.545454 2.695338 -0.000000 -0.000000 -0.000000
-216.444655 96.829200 397.009945 9.530245 2.918180 1.679022 -0.294519 1.469805 -0.911864 -0.086788 -5.172373 -0.405932 -0.086397 0.648053 -0.414743 -0.096146 6.322697 -0.312859 0.277469 16.144694 1.153380 0.101670 -6.042498 2.045086 1.414558 -3.432595 7.862965 6.951137 -7.164756 75.443840 7.340127 22.987003 7.189797 -2.848207 7.569067 -2.953625 -0.222883 -2.881762 -7.724114 -12.943426 -8.000703 -74.898886 -10.972440 28.150574 -5.546823 6.569478 0.849776 2.835047 -2.792865 -5.710694 -3.137994 0.289582 10.101892 0.296497 2.432508 -8.194465 1.766288 -0.000000 -0.000000 -0.000000 2.428287 -0.301270 -1.435724 0.001252 1.965400 -0.411674 -9.661465 -8.549474 2.703944 -0.000000 -0.000000 -0.000000
-216.454502 96.826812 397.019262 9.525396 2.918671 1.652931 -0.289700 1.465773 -0.895246 -0.085458 -5.174190 -0.398537 -0.085073 0.646236 -0.407212 -0.094585 6.321335 -0.307178 0.276911 16.155574 1.155346 0.100083 -6.022265 2.048849 1.412972 -3.420080 7.851123 6.956843 -7.166124 75.454965 7.340796 22.989947 7.190779 -2.846742 7.571233 -2.953296 -0.221925 -2.874343 -7.727907 -12.939952 -8.005721 -74.900671 -10.973210 28.147861 -5.547277 6.567866 0.849517 2.834045 -2.782284 -5.712272 -3.103205 0.256410 10.117408 0.285106 2.449265 -8.202640 1.771193 -0.000000 0.000000 0.000000 2.443716 -0.291794 -1.383732 0.004311 1.955252 -0.448272 -9.676680 -8.553993 2.712760 0.000000 0.000000 0.000000
-216.464349 96.824423 397.028579 9.520546 2.919160 1.626840 -0.284885 1.461738 -0.878629 -0.084129 -5.176007 -0.391142 -0.083750 0.644418 -0.399682 -0.093024 6.319973 -0.301497 0.276352 16.166454 1.157312 0.098493 -6.002032 2.052615 1.411383 -3.407564 7.839281 6.962549 -7.167494 75.466089 7.341465 22.992890 7.191760 -2.845278 7.573399 -2.952966 -0.220968 -2.866923 -7.731698 -12.936476 -8.010739 -74.902457 -10.973978 28.145147 -5.547732 6.566253 0.849257 2.833043 -2.771704 -5.713860 -3.068416 0.223231 10.132913 0.273705 2.466023 -8.210814 1.776095 0.000000 0.000000 0.000000 2.459159 -0.282334 -1.331739 0.007373 1.945115 -0.484872 -9.691898 -8.558510 2.721575 0.000000 0.000000 0.000000
-216.474162 96.822042 397.037905 9.515624 2.919633 1.600992 -0.280094 1.457716 -0.862162 -0.082803 -5.177819 -0.383813 -0.082430 0.642606 -0.392219 -0.091471 6.318615 -0.295867 0.275830 16.177403 1.159280 0.096976 -5.981673 2.056368 1.409794 -3.395099 7.827493 6.968259 -7.168824 75.477143 7.342122 22.995829 7.192741 -2.843807 7.575541 -2.952565 -0.219953 -2.859462 -7.735512 -12.933040 -8.015713 -74.904173 -10.974865 28.142406 -5.548290 6.564619 0.849003 2.832030 -2.761262 -5.715479 -3.033877 0.190562 10.148438 0.262377 2.482568 -8.219031 1.780891 -0.000000 -0.000000 0.000000 2.474371 -0.272957 -1.280141 0.010009 1.935066 -0.521214 -9.706016 -8.562522 2.730181 0.000000 -0.000000 -0.000000
-216.483909 96.819676 397.047247 9.510555 2.920075 1.575630 -0.275350 1.453718 -0.845993 -0.081483 -5.179619 -0.376617 -0.081116 0.640807 -0.384889 -0.089933 6.317267 -0.290337 0.275387 16.188488 1.161250 0.095604 -5.961062 2.060097 1.408208 -3.382733 7.815812 6.973975 -7.170072 75.488057 7.342756 22.998760 7.193724 -2.842321 7.577634 -2.952022 -0.218818 -2.851920 -7.739375 -12.929682 -8.020600 -74.905750 -10.975989 28.139610 -5.549052 6.562943 0.848758 2.830997 -2.751095 -5.717150 -2.999837 0.158919 10.164011 0.251200 2.498684 -8.227335 1.785476 0.000000 0.000000 0.000000 2.489107 -0.263728 -1.229334 0.011786 1.925178 -0.557036 -9.717934 -8.565531 2.738368 0.000000 0.000000 -0.000000
-216.493554 96.817331 397.056614 9.505268 2.920473 1.550998 -0.270674 1.449759 -0.830273 -0.080172 -5.181401 -0.369621 -0.079810 0.639025 -0.377760 -0.088416 6.315931 -0.284958 0.275060 16.199779 1.163223 0.094454 -5.940070 2.063786 1.406628 -3.370518 7.804292 6.979700 -7.171198 75.498761 7.343355 23.001677 7.194707 -2.840814 7.579653 -2.951264 -0.217505 -2.844256 -7.743310 -12.926442 -8.025355 -74.907117 -10.977469 28.136732 -5.550124 6.561201 0.848530 2.829933 -2.741337 -5.718896 -2.966547 0.128819 10.179663 0.240258 2.514158 -8.235771 1.789746 0.000000 -0.000000 -0.000000 2.503119 -0.254709 -1.179716 0.012274 1.915526 -0.592076 -9.726550 -8.567034 2.745926 -0.000000 0.000000 -0.000000
-216.503066 96.815015 397.066013 9.499690 2.920813 1.527338 -0.266088 1.445853 -0.815151 -0.078871 -5.183158 -0.362892 -0.078516 0.637268 -0.370898 -0.086927 6.314615 -0.279782 0.274891 16.211344 1.165200 0.093599 -5.918571 2.067423 1.405057 -3.358503 7.792986 6.985437 -7.172159 75.509186 7.343907 23.004577 7.195691 -2.839276 7.581574 -2.950222 -0.215953 -2.836430 -7.747341 -12.923360 -8.029935 -74.908204 -10.979424 28.133744 -5.551607 6.559374 0.848322 2.828830 -2.732126 -5.720735 -2.934256 0.100779 10.195424 0.229629 2.528773 -8.244384 1.793599 -0.000000 0.000000 -0.000000 2.516161 -0.245964 -1.131682 0.011040 1.906182 -0.626071 -9.730763 -8.566534 2.752648 0.000000 -0.000000 0.000000
-216.512409 96.812736 397.075455 9.493748 2.921080 1.504894 -0.261615 1.442013 -0.800776 -0.077584 -5.184885 -0.356495 -0.077234 0.635542 -0.364371 -0.085473 6.313321 -0.274858 0.274919 16.223252 1.167181 0.093115 -5.896439 2.070995 1.403498 -3.346739 7.781947 6.991189 -7.172914 75.519261 7.344402 23.007455 7.196677 -2.837702 7.583372 -2.948823 -0.214101 -2.828400 -7.751494 -12.920476 -8.034298 -74.908941 -10.981973 28.130619 -5.553604 6.557439 0.848140 2.827676 -2.723596 -5.722687 -2.903215 0.075315 10.211324 0.219397 2.542315 -8.253218 1.796930 0.000000 -0.000000 -0.000000 2.527987 -0.237554 -1.085629 0.007654 1.897216 -0.658758 -9.729469 -8.563530 2.758323 -0.000000 -0.000000 -0.000000
